# xmcd CD database file
#
# Track frame offsets:
#	150
#	17616
#	37447
#	56237
#	75748
#	87414
#	105245
#	128152
#	143608
#	164848
#	188357
#	206837
#
# Disc length: 2898 seconds
#
# Revision: 0
# Processed by: cddbd v1.5.1PL0 Copyright (c) Steve Scherf et al.
# Submitted via: Feurio! 1.68 - http://www.feurio.com
#
DISCID=a40b500c
DTITLE=The Chargers - Hypercharged!
DYEAR=1900
DGENRE=
TTITLE0=That ain't just a car
TTITLE1=Coffee
TTITLE2=New girl in town
TTITLE3=If you should leave me
TTITLE4=The return of the cowboy aliens
TTITLE5=Last minute man
TTITLE6=Slow looking woman
TTITLE7=I don't say you're lying
TTITLE8=Losing game
TTITLE9=She wanna mambo
TTITLE10=Land of no sorrows
TTITLE11=Hypercharged!
EXTD=
EXTT0=
EXTT1=
EXTT2=
EXTT3=
EXTT4=
EXTT5=
EXTT6=
EXTT7=
EXTT8=
EXTT9=
EXTT10=
EXTT11=
PLAYORDER=
